<svg width="512" height="512" viewBox="0 0 100 100" xmlns="http://www.w3.org/2000/svg">
<g transform="translate(8,4)">
<ellipse cx="42" cy="58" rx="33" ry="41" fill="#E8703A"/>

<path d="M 9 39 Q 2 16 22 19 Q 14 31 16 45 Z" fill="#E8703A"/>
<path d="M 75 39 Q 82 16 62 19 Q 70 31 68 45 Z" fill="#E8703A"/>

<circle cx="28" cy="46" r="12" fill="#FAF6EE"/>
<circle cx="56" cy="46" r="12" fill="#FAF6EE"/>
<circle cx="28" cy="46" r="6.4" fill="#1B4D3E"/>
<circle cx="56" cy="46" r="6.4" fill="#1B4D3E"/>

<path d="M 42 52.5 L 37 62.5 L 47 62.5 Z" fill="#d2602d"/>

<path d="M 6 76 Q 1 85 8 91 Q 12 84 12.5 76 Z" fill="#d2602d"/>
<path d="M 78 76 Q 83 85 76 91 Q 72 84 71.5 76 Z" fill="#d2602d"/>

<g transform="translate(15.5,74)">
<path d="M 0 4.8 Q 0 0 4.8 0 L 22.5 0 Q 25.5 0 25.5 3.2 L 25.5 30.5 Q 25.5 33.7 22.5 33.7 L 4.8 33.7 Q 0 33.7 0 28.9 Z" fill="#1B4D3E"/>
<path d="M 51 4.8 Q 51 0 46.2 0 L 28.5 0 Q 25.5 0 25.5 3.2 L 25.5 30.5 Q 25.5 33.7 28.5 33.7 L 46.2 33.7 Q 51 33.7 51 28.9 Z" fill="#1B4D3E"/>
<line x1="25.5" y1="3.2" x2="25.5" y2="32" stroke="#FAF6EE" stroke-width="1.2"/>
</g>

<ellipse cx="29.5" cy="100" rx="5.2" ry="2.6" fill="#d2602d"/>
<ellipse cx="54.5" cy="100" rx="5.2" ry="2.6" fill="#d2602d"/>
</g>
</svg>
